<svg xmlns="http://www.w3.org/2000/svg" width="14" height="14" viewBox="0 0 14 14">
  <defs>
    <style>
      .cls-1 {
        fill: #9fa9ba;
        fill-rule: evenodd;
      }
    </style>
  </defs>
  <path id="Add_icon.svg" data-name="Add icon.svg" class="cls-1" d="M806.978,977.892l0.027-11.783a1.044,1.044,0,0,0-.986-1.109,1.076,1.076,0,0,0-1,1.123l-0.027,11.783a1.043,1.043,0,0,0,.986,1.109A1.077,1.077,0,0,0,806.978,977.892Zm-6.87-4.914,11.783,0.027a1.045,1.045,0,0,0,1.109-.986,1.076,1.076,0,0,0-1.123-1l-11.783-.027a1.043,1.043,0,0,0-1.109.986A1.077,1.077,0,0,0,800.108,972.978Z" transform="translate(-799 -965)"/>
</svg>
