<svg xmlns="http://www.w3.org/2000/svg" width="14" height="16" viewBox="0 0 14 16">
  <defs>
    <style>
      .cls-1 {
        fill: #b7c0cd;
        fill-rule: evenodd;
      }
    </style>
  </defs>
  <path id="Book_of_Wisdom.svg" data-name="Book of Wisdom.svg" class="cls-1" d="M145,319H134a2,2,0,0,0-2,2v12a2,2,0,0,0,2,2h11a1,1,0,0,0,1-1V320A1,1,0,0,0,145,319Zm-1,13.5a0.5,0.5,0,0,1-.5.5h-8.51a0.99,0.99,0,0,1-.99-0.99v-0.02a0.99,0.99,0,0,1,.99-0.99h8.51a0.5,0.5,0,0,1,.5.5v1Zm0-3.969a0.5,0.5,0,0,1-.5.5h-7a0.5,0.5,0,0,1-.5-0.5V321.5a0.5,0.5,0,0,1,.5-0.5h7a0.5,0.5,0,0,1,.5.5v7.031ZM141.5,323h-3a0.5,0.5,0,0,0-.5.5v1a0.5,0.5,0,0,0,.5.5h3a0.5,0.5,0,0,0,.5-0.5v-1A0.5,0.5,0,0,0,141.5,323Z" transform="translate(-132 -319)"/>
</svg>
