<svg xmlns="http://www.w3.org/2000/svg" width="16" height="16" viewBox="0 0 16 16">
  <defs>
    <style>
      .cls-1 {
        fill: #b7c0cd;
        fill-rule: evenodd;
      }
    </style>
  </defs>
  <path id="Chart.svg" class="cls-1" d="M133,442V428h-2v15a1,1,0,0,0,1,1h15v-2H133Zm3.5-8h-1a0.5,0.5,0,0,0-.5.5v5a0.5,0.5,0,0,0,.5.5h1a0.5,0.5,0,0,0,.5-0.5v-5A0.5,0.5,0,0,0,136.5,434Zm3-4h-1a0.5,0.5,0,0,0-.5.5v9a0.5,0.5,0,0,0,.5.5h1a0.5,0.5,0,0,0,.5-0.5v-9A0.5,0.5,0,0,0,139.5,430Zm3,6h-1a0.5,0.5,0,0,0-.5.5v3a0.5,0.5,0,0,0,.5.5h1a0.5,0.5,0,0,0,.5-0.5v-3A0.5,0.5,0,0,0,142.5,436Zm3-4h-1a0.5,0.5,0,0,0-.5.5v7a0.5,0.5,0,0,0,.5.5h1a0.5,0.5,0,0,0,.5-0.5v-7A0.5,0.5,0,0,0,145.5,432Z" transform="translate(-131 -428)"/>
</svg>
