<svg xmlns="http://www.w3.org/2000/svg" width="18" height="16" viewBox="0 0 18 16">
  <defs>
    <style>
      .cls-1 {
        fill: #b7c0cd;
        fill-rule: evenodd;
      }
    </style>
  </defs>
  <path id="Painting.svg" class="cls-1" d="M137.994,397.994a2,2,0,1,1-2-2A2,2,0,0,1,137.994,397.994Zm-3.71,9.711h0a0.99,0.99,0,0,1,0-1.4l8.018-8.019a0.993,0.993,0,0,1,1.4,0h0a0.993,0.993,0,0,1,0,1.4l-8.019,8.018A0.99,0.99,0,0,1,134.284,407.705Zm12.029-4-4.03-4.029a0.986,0.986,0,0,1,0-1.394h0a0.987,0.987,0,0,1,1.4,0l4.029,4.029a0.986,0.986,0,0,1,0,1.394h0A0.986,0.986,0,0,1,146.313,403.706ZM147,391.993h-16a1,1,0,0,0-1,1v14a1,1,0,0,0,1,1h16a1,1,0,0,0,1-1v-14A1,1,0,0,0,147,391.993Zm-1,13.5a0.5,0.5,0,0,1-.5.5h-13a0.5,0.5,0,0,1-.5-0.5v-11a0.5,0.5,0,0,1,.5-0.5h13a0.5,0.5,0,0,1,.5.5v11Z" transform="translate(-130 -392)"/>
</svg>
