<svg xmlns="http://www.w3.org/2000/svg" width="16" height="16" viewBox="0 0 16 16">
  <defs>
    <style>
      .cls-1 {
        fill: #475364;
        fill-rule: evenodd;
      }
    </style>
  </defs>
  <path id="Settings.svg" class="cls-1" d="M74,991v2H71.909a5.942,5.942,0,0,1-.995,2.407l2.1,1.824-1.443,1.782L69.257,997a5.966,5.966,0,0,1-2.257.9v2.1H65v-2.091a5.9,5.9,0,0,1-2.26-.9l-2.308,2.007-1.444-1.782,2.1-1.827A5.978,5.978,0,0,1,60.1,993H58v-2h2.091a5.939,5.939,0,0,1,.995-2.407l-2.1-1.824,1.444-1.782L62.744,987A5.965,5.965,0,0,1,65,986.1V984h2v2.1a5.966,5.966,0,0,1,2.257.9l2.312-2.01,1.443,1.782-2.1,1.824A5.942,5.942,0,0,1,71.909,991H74Zm-8-2a3,3,0,1,0,3,3A3,3,0,0,0,66,989Z" transform="translate(-58 -984)"/>
</svg>
