<svg xmlns="http://www.w3.org/2000/svg" width="16" height="15" viewBox="0 0 16 15">
  <defs>
    <style>
      .cls-1 {
        fill: #9fa9ba;
        fill-rule: evenodd;
      }
    </style>
  </defs>
  <path id="Upload_icon.svg" data-name="Upload icon.svg" class="cls-1" d="M1336,121h-12a2,2,0,0,1-2-2v-2h2v1a1,1,0,0,0,1,1h10a1,1,0,0,0,1-1v-1h2v2A2,2,0,0,1,1336,121Zm-13-6a1,1,0,0,1,1,1v1a1,1,0,0,1-2,0v-1A1,1,0,0,1,1323,115Zm14,0a1,1,0,0,1,1,1v1a1,1,0,0,1-2,0v-1A1,1,0,0,1,1337,115Zm-7-9a1,1,0,0,1,1,1v9a1,1,0,0,1-2,0v-9A1,1,0,0,1,1330,106Zm-0.05,0a1,1,0,0,0-.71.293l-2.97,3.016a1,1,0,0,0,1.42,1.414l2.26-2.309,2.33,2.317a0.994,0.994,0,0,0,1.41,0,0.983,0.983,0,0,0,0-1.414l-3.03-3.024A1,1,0,0,0,1329.95,106Z" transform="translate(-1322 -106)"/>
</svg>
