<svg xmlns="http://www.w3.org/2000/svg" width="16" height="16" viewBox="0 0 16 16">
  <defs>
    <style>
      .cls-1 {
        fill: #9fa9ba;
        fill-rule: evenodd;
      }
    </style>
  </defs>
  <path id="User_icon.svg" data-name="User icon.svg" class="cls-1" d="M1297.64,113.163a3.133,3.133,0,0,0-.5.978,2.98,2.98,0,0,0-2.08,2.29A4.2,4.2,0,0,1,1293,117a4.521,4.521,0,0,1-3.29-1.516A1.992,1.992,0,0,0,1291,119h4a2.048,2.048,0,0,0,.68-0.125,2.937,2.937,0,0,0,1.47.987,2.857,2.857,0,0,0,.14.409A3.98,3.98,0,0,1,1295,121h-4a3.988,3.988,0,0,1-2.39-7.189A6.807,6.807,0,0,1,1288,111c0-3.314,2.24-6,5-6s5,2.686,5,6A6.648,6.648,0,0,1,1297.64,113.163ZM1293,107c-1.66,0-3,1.791-3,4s1.34,4,3,4,3-1.791,3-4S1294.66,107,1293,107Zm9,11h-1v1a1,1,0,0,1-2,0v-1h-1a1,1,0,0,1,0-2h1v-1a1,1,0,0,1,2,0v1h1A1,1,0,0,1,1302,118Z" transform="translate(-1287 -105)"/>
</svg>
