<?xml version="1.0" standalone="no"?>
<!DOCTYPE svg PUBLIC "-//W3C//DTD SVG 20010904//EN"
 "http://www.w3.org/TR/2001/REC-SVG-20010904/DTD/svg10.dtd">
<svg version="1.0" xmlns="http://www.w3.org/2000/svg"
 width="447.000000pt" height="447.000000pt" viewBox="0 0 447.000000 447.000000"
 preserveAspectRatio="xMidYMid meet">
<metadata>
Created by potrace 1.11, written by Peter Selinger 2001-2013
</metadata>
<g transform="translate(0.000000,447.000000) scale(0.100000,-0.100000)"
fill="#000000" stroke="none">
<path d="M2530 4210 c-501 -166 -978 -335 -992 -352 -16 -18 -18 -49 -18 -325
0 -268 -2 -304 -15 -299 -8 3 -108 35 -221 72 l-206 66 -482 -165 -481 -164
-3 -1382 -2 -1381 755 0 755 0 0 1409 0 1409 223 -72 222 -72 6 -834 c3 -459
7 -1061 8 -1337 l1 -503 360 0 360 0 2 1127 3 1127 340 87 c187 49 350 91 363
94 l22 5 0 -1220 0 -1220 425 0 425 0 -5 743 c-8 1197 -14 1550 -25 1561 -6 6
-171 60 -368 121 l-357 110 -3 521 c-2 401 -5 524 -15 531 -6 6 -176 68 -377
138 -663 232 -639 225 -700 205z m540 -250 l455 -157 0 -494 0 -494 -396 -100
c-218 -55 -404 -106 -413 -114 -15 -12 -16 -108 -16 -1142 l0 -1129 -260 0
-260 0 -1 98 c-14 2233 -17 2584 -26 2593 -6 6 -127 48 -269 93 l-259 82 -3
301 -2 301 102 36 c499 176 856 294 873 289 11 -3 225 -77 475 -163z m-1769
-761 l219 -70 0 -1400 0 -1399 -680 0 -680 0 0 1313 0 1312 453 157 c248 86
456 157 460 158 5 0 107 -32 228 -71z m2652 -586 l317 -97 0 -365 c0 -201 3
-693 7 -1093 l6 -728 -331 0 -332 0 0 1190 c0 655 3 1190 8 1190 4 0 150 -43
325 -97z"/>
</g>
</svg>
